<?xml version="1.0" encoding="utf-8"?>
<!-- Svg Vector Icons : http://www.onlinewebfonts.com/icon -->
<!DOCTYPE svg PUBLIC "-//W3C//DTD SVG 1.1//EN" "http://www.w3.org/Graphics/SVG/1.1/DTD/svg11.dtd">
<svg version="1.1" xmlns="http://www.w3.org/2000/svg" xmlns:xlink="http://www.w3.org/1999/xlink" x="0px" y="0px" viewBox="0 0 1000 1000" enable-background="new 0 0 1000 1000" xml:space="preserve">
<metadata> Svg Vector Icons : http://www.onlinewebfonts.com/icon </metadata>
<g><g transform="translate(0.000000,512.000000) scale(0.100000,-0.100000)"><path d="M1547,5002.4c-70.8-21.1-158.9-105.3-202.9-191.4c-78.5-155-780.9-1898.8-1010.6-2511.3C117.2,1727.4,100,1662.4,100,1426.9c1.9-405.8,109.1-691,361.8-943.6C944.1,1,1705.9,1,2188.2,483.3c166.5,168.4,290.9,390.5,329.2,591.4c11.5,65.1,26.8,118.7,32.5,118.7s21.1-53.6,32.5-118.7c63.2-325.4,325.4-662.3,637.4-817.3c367.5-179.9,742.7-179.9,1110.2,0c312,155,574.2,491.9,637.4,817.3c11.5,65.1,26.8,118.7,32.5,118.7s21-53.6,32.5-118.7c63.2-325.4,325.4-662.3,637.4-817.3c367.5-179.9,742.7-179.9,1110.2,0c312,155,574.2,491.9,637.4,817.3c11.5,65.1,26.8,118.7,32.5,118.7s21-53.6,32.5-118.7c38.3-201,162.7-423,329.2-591.4C8294.1,1,9055.9,1,9538.2,483.3c252.7,252.7,359.9,537.9,361.8,943.6c0,235.4-17.2,302.4-229.7,867.1c-237.4,629.7-936,2363.9-1014.5,2517c-47.9,91.9-134,168.4-212.5,191.4C8361.1,5027.3,1625.5,5025.4,1547,5002.4z"/><path d="M2454.3-100.5c-227.8-181.8-522.5-310.1-828.8-363.7c-222-40.2-537.9-26.8-735,28.7c-76.6,23-147.4,40.2-158.9,40.2c-13.4,0-19.1-524.5-19.1-1577.2v-1575.3l-86.1-11.5c-193.3-26.8-379-164.6-468.9-348.4c-67-137.8-67-379,0-516.8c59.3-122.5,174.2-237.4,296.7-296.7l95.7-47.9l2226-5.7l2224.1-3.8v1741.8c0,1925.5-7.7,1818.4,120.6,1894.9c59.3,36.4,103.4,38.3,1100.6,38.3c1146.5,0,1115.9,3.8,1190.5-120.6c36.4-59.3,38.3-109.1,38.3-1808.8v-1747.5l1001.1,5.7l999.1,5.7l95.7,47.9c122.5,59.3,237.4,174.2,296.7,296.7c67,137.8,67,379,0,516.8c-90,183.7-275.6,321.6-468.9,348.4l-86.1,11.5v1575.3c0,1052.7-5.7,1577.2-19.1,1577.2c-11.5,0-82.3-17.2-158.9-38.3c-493.8-139.7-1089.1-19.1-1542.7,315.8l-118.7,88l-116.8-88c-662.3-497.7-1538.9-497.7-2214.6,0l-118.7,88l-116.8-88c-660.4-495.8-1538.9-497.7-2212.6-1.9c-65.1,49.8-120.6,88.1-124.4,88.1C2542.3-31.6,2502.1-62.2,2454.3-100.5z M3654.4-1141.7c112.9-68.9,120.6-105.3,120.6-574.2s-7.7-505.3-120.6-574.2c-57.4-36.4-101.5-38.3-798.2-38.3c-985.7,0-918.8-45.9-918.8,612.5c0,468.9,7.7,505.3,120.6,574.2c57.4,36.4,101.5,38.3,798.2,38.3S3597-1105.4,3654.4-1141.7z"/></g></g>
</svg>